# xmcd
#
# Track frame offsets:
#	150
#	15517
#	32176
#	48410
#	65387
#	81477
#	95764
#	109868
#	124154
#	140976
#	155135
#	171354
#	185662
#	199080
#	214314
#	230362
#	245719
#	262202
#	276288
#	292304
#	306512
#
# Disc length: 4268 seconds
#
# Revision: 1
# Processed by: cddbd v1.5.2PL0 Copyright (c) Steve Scherf et al.
# Submitted via: dBpowerAMP V4.0
#
DISCID=5e10aa15
DTITLE=Various Artist - Hott Country # 268 Canada
DYEAR=2018
DGENRE=Country
TTITLE0=Jason Aldean ft. Miranda Lambert - Drowns The Whiskey
TTITLE1=Brett Kissel - Guitars And Gasoline
TTITLE2=Luke Bryan - Sunrise, Sunburn, Sunset
TTITLE3=Dean Brody - Good Goodbye
TTITLE4=Sam Hunt - Downtown's Dead
TTITLE5=Madeline Merlo - Neon Love
TTITLE6=Gord Bamford - Dive Bar
TTITLE7=Midland - Burn Out
TTITLE8=Aaron Pritchett - Worth A Shot
TTITLE9=Krystal Keith and Lance Carpenter - Anyone Else
TTITLE10=Ryan Langdon - Leave Me Right
TTITLE11=Dustin Lynch - Good Girl
TTITLE12=Andrew Hyatt - Habit
TTITLE13=Abby Anderson - Make Him Wait
TTITLE14=Chris Henderson - 'Til It's Just A Memory
TTITLE15=Don Amero - Live While I'm Alive
TTITLE16=Brandon Lay - Yada Yada Yada
TTITLE17=Joe Nichols - Billy Graham's Bible
TTITLE18=Clare Dunn - More
TTITLE19=Maddie and Tae - Friends Don't
TTITLE20=James Dupre - Hurt Good
EXTD=
EXTT0=
EXTT1=
EXTT2=
EXTT3=
EXTT4=
EXTT5=
EXTT6=
EXTT7=
EXTT8=
EXTT9=
EXTT10=
EXTT11=
EXTT12=
EXTT13=
EXTT14=
EXTT15=
EXTT16=
EXTT17=
EXTT18=
EXTT19=
EXTT20=
PLAYORDER=
